<svg xmlns="http://www.w3.org/2000/svg" xmlns:xlink="http://www.w3.org/1999/xlink" width="150" zoomAndPan="magnify" viewBox="109 82 150 150" height="150" preserveAspectRatio="xMidYMid meet" version="1.0"><defs><g/><clipPath id="dbc0a11bcc"><path d="M 138.4375 119.433594 L 222.4375 119.433594 L 222.4375 153 L 138.4375 153 Z M 138.4375 119.433594 " clip-rule="nonzero"/></clipPath><clipPath id="ff78fda677"><path d="M 138.4375 169 L 222.4375 169 L 222.4375 199.683594 L 138.4375 199.683594 Z M 138.4375 169 " clip-rule="nonzero"/></clipPath></defs><g fill="#0a26f5" fill-opacity="1"><g transform="translate(128.5933, 165.001806)"><g><path d="M 1.78125 -8.875 C 1.664062 -8.875 1.5625 -8.898438 1.46875 -8.953125 C 1.375 -9.015625 1.296875 -9.09375 1.234375 -9.1875 C 1.179688 -9.28125 1.15625 -9.382812 1.15625 -9.5 C 1.15625 -9.675781 1.210938 -9.820312 1.328125 -9.9375 C 1.453125 -10.0625 1.601562 -10.125 1.78125 -10.125 C 1.894531 -10.125 1.992188 -10.09375 2.078125 -10.03125 C 2.171875 -9.976562 2.242188 -9.90625 2.296875 -9.8125 C 2.359375 -9.71875 2.390625 -9.613281 2.390625 -9.5 C 2.390625 -9.382812 2.359375 -9.28125 2.296875 -9.1875 C 2.242188 -9.09375 2.171875 -9.015625 2.078125 -8.953125 C 1.992188 -8.898438 1.894531 -8.875 1.78125 -8.875 Z M 2.484375 -7.96875 L 2.484375 -0.171875 C 2.484375 -0.0546875 2.421875 0 2.296875 0 L 1.140625 0 C 1.023438 0 0.96875 -0.0546875 0.96875 -0.171875 L 0.96875 -7.96875 C 0.96875 -8.09375 1.023438 -8.15625 1.140625 -8.15625 L 2.296875 -8.15625 C 2.421875 -8.15625 2.484375 -8.09375 2.484375 -7.96875 Z M 2.484375 -7.96875 "/></g></g></g><g fill="#0a26f5" fill-opacity="1"><g transform="translate(132.046143, 165.001806)"><g><path d="M 6.09375 -2.40625 L 7.1875 -0.28125 C 7.21875 -0.195312 7.21875 -0.128906 7.1875 -0.078125 C 7.164062 -0.0234375 7.113281 0 7.03125 0 L 5.84375 0 C 5.789062 0 5.738281 -0.015625 5.6875 -0.046875 C 5.632812 -0.0859375 5.597656 -0.132812 5.578125 -0.1875 L 4.734375 -1.921875 C 4.640625 -1.910156 4.546875 -1.898438 4.453125 -1.890625 C 4.359375 -1.878906 4.265625 -1.875 4.171875 -1.875 L 2.484375 -1.875 L 2.484375 -0.234375 C 2.484375 -0.160156 2.457031 -0.101562 2.40625 -0.0625 C 2.363281 -0.0195312 2.304688 0 2.234375 0 L 1.21875 0 C 1.144531 0 1.082031 -0.0195312 1.03125 -0.0625 C 0.988281 -0.101562 0.96875 -0.160156 0.96875 -0.234375 L 0.96875 -7.921875 C 0.96875 -7.984375 0.988281 -8.035156 1.03125 -8.078125 C 1.082031 -8.117188 1.144531 -8.140625 1.21875 -8.140625 L 1.484375 -8.140625 C 1.640625 -8.140625 1.789062 -8.140625 1.9375 -8.140625 C 2.09375 -8.140625 2.203125 -8.140625 2.265625 -8.140625 L 4.171875 -8.140625 C 4.648438 -8.140625 5.085938 -8.0625 5.484375 -7.90625 C 5.890625 -7.757812 6.238281 -7.539062 6.53125 -7.25 C 6.832031 -6.96875 7.0625 -6.632812 7.21875 -6.25 C 7.382812 -5.863281 7.46875 -5.441406 7.46875 -4.984375 C 7.46875 -4.429688 7.34375 -3.929688 7.09375 -3.484375 C 6.84375 -3.046875 6.507812 -2.6875 6.09375 -2.40625 Z M 4.078125 -3.140625 C 4.441406 -3.140625 4.765625 -3.21875 5.046875 -3.375 C 5.328125 -3.539062 5.546875 -3.757812 5.703125 -4.03125 C 5.867188 -4.3125 5.953125 -4.632812 5.953125 -5 C 5.953125 -5.257812 5.90625 -5.5 5.8125 -5.71875 C 5.71875 -5.945312 5.585938 -6.140625 5.421875 -6.296875 C 5.253906 -6.460938 5.054688 -6.59375 4.828125 -6.6875 C 4.597656 -6.78125 4.347656 -6.828125 4.078125 -6.828125 L 2.484375 -6.828125 L 2.484375 -3.140625 Z M 4.078125 -3.140625 "/></g></g></g><g fill="#0a26f5" fill-opacity="1"><g transform="translate(140.17963, 165.001806)"><g><path d="M 7.890625 -0.265625 C 7.921875 -0.179688 7.921875 -0.113281 7.890625 -0.0625 C 7.859375 -0.0078125 7.800781 0.015625 7.71875 0.015625 L 6.5625 0.015625 C 6.5 0.015625 6.441406 -0.00390625 6.390625 -0.046875 C 6.347656 -0.0859375 6.3125 -0.140625 6.28125 -0.203125 L 5.953125 -1 L 2.21875 -1 L 1.890625 -0.203125 C 1.859375 -0.148438 1.820312 -0.101562 1.78125 -0.0625 C 1.738281 -0.0195312 1.679688 0 1.609375 0 L 0.46875 0 C 0.375 0 0.304688 -0.0195312 0.265625 -0.0625 C 0.234375 -0.113281 0.238281 -0.179688 0.28125 -0.265625 L 3.75 -8.046875 C 3.78125 -8.109375 3.820312 -8.15625 3.875 -8.1875 C 3.925781 -8.226562 3.984375 -8.25 4.046875 -8.25 L 4.109375 -8.25 C 4.171875 -8.25 4.226562 -8.226562 4.28125 -8.1875 C 4.332031 -8.15625 4.375 -8.109375 4.40625 -8.046875 Z M 2.75 -2.296875 L 5.421875 -2.296875 L 4.09375 -5.53125 Z M 2.75 -2.296875 "/></g></g></g><g fill="#0a26f5" fill-opacity="1"><g transform="translate(148.345287, 165.001806)"><g><path d="M 8.9375 -4.0625 C 8.9375 -3.53125 8.847656 -3.03125 8.671875 -2.5625 C 8.492188 -2.09375 8.242188 -1.675781 7.921875 -1.3125 C 7.609375 -0.945312 7.234375 -0.644531 6.796875 -0.40625 C 6.367188 -0.164062 5.90625 -0.00390625 5.40625 0.078125 L 5.40625 1.359375 C 5.40625 1.515625 5.332031 1.59375 5.1875 1.59375 L 4.21875 1.59375 C 4.070312 1.59375 4 1.515625 4 1.359375 L 4 0.0625 C 3.488281 -0.0078125 3.019531 -0.164062 2.59375 -0.40625 C 2.164062 -0.644531 1.796875 -0.945312 1.484375 -1.3125 C 1.171875 -1.6875 0.925781 -2.101562 0.75 -2.5625 C 0.570312 -3.03125 0.484375 -3.53125 0.484375 -4.0625 C 0.484375 -4.53125 0.550781 -4.976562 0.6875 -5.40625 C 0.832031 -5.832031 1.03125 -6.21875 1.28125 -6.5625 C 1.539062 -6.90625 1.84375 -7.207031 2.1875 -7.46875 C 2.539062 -7.726562 2.929688 -7.925781 3.359375 -8.0625 C 3.785156 -8.195312 4.234375 -8.265625 4.703125 -8.265625 C 5.179688 -8.265625 5.628906 -8.195312 6.046875 -8.0625 C 6.472656 -7.925781 6.863281 -7.726562 7.21875 -7.46875 C 7.570312 -7.207031 7.875 -6.90625 8.125 -6.5625 C 8.382812 -6.21875 8.582031 -5.832031 8.71875 -5.40625 C 8.863281 -4.976562 8.9375 -4.53125 8.9375 -4.0625 Z M 4.703125 -1.390625 C 5.085938 -1.390625 5.441406 -1.457031 5.765625 -1.59375 C 6.097656 -1.726562 6.390625 -1.914062 6.640625 -2.15625 C 6.890625 -2.394531 7.082031 -2.675781 7.21875 -3 C 7.351562 -3.320312 7.421875 -3.675781 7.421875 -4.0625 C 7.421875 -4.445312 7.347656 -4.800781 7.203125 -5.125 C 7.066406 -5.445312 6.875 -5.726562 6.625 -5.96875 C 6.382812 -6.21875 6.097656 -6.410156 5.765625 -6.546875 C 5.441406 -6.691406 5.085938 -6.765625 4.703125 -6.765625 C 4.328125 -6.765625 3.972656 -6.691406 3.640625 -6.546875 C 3.316406 -6.410156 3.03125 -6.21875 2.78125 -5.96875 C 2.53125 -5.726562 2.335938 -5.445312 2.203125 -5.125 C 2.066406 -4.800781 2 -4.445312 2 -4.0625 C 2 -3.675781 2.066406 -3.320312 2.203125 -3 C 2.335938 -2.675781 2.53125 -2.394531 2.78125 -2.15625 C 3.03125 -1.914062 3.316406 -1.726562 3.640625 -1.59375 C 3.972656 -1.457031 4.328125 -1.390625 4.703125 -1.390625 Z M 4.703125 -1.390625 "/></g></g></g><g fill="#0a26f5" fill-opacity="1"><g transform="translate(161.213023, 165.001806)"><g><path d="M 7.890625 -0.265625 C 7.921875 -0.179688 7.921875 -0.113281 7.890625 -0.0625 C 7.859375 -0.0078125 7.800781 0.015625 7.71875 0.015625 L 6.5625 0.015625 C 6.5 0.015625 6.441406 -0.00390625 6.390625 -0.046875 C 6.347656 -0.0859375 6.3125 -0.140625 6.28125 -0.203125 L 5.953125 -1 L 2.21875 -1 L 1.890625 -0.203125 C 1.859375 -0.148438 1.820312 -0.101562 1.78125 -0.0625 C 1.738281 -0.0195312 1.679688 0 1.609375 0 L 0.46875 0 C 0.375 0 0.304688 -0.0195312 0.265625 -0.0625 C 0.234375 -0.113281 0.238281 -0.179688 0.28125 -0.265625 L 3.75 -8.046875 C 3.78125 -8.109375 3.820312 -8.15625 3.875 -8.1875 C 3.925781 -8.226562 3.984375 -8.25 4.046875 -8.25 L 4.109375 -8.25 C 4.171875 -8.25 4.226562 -8.226562 4.28125 -8.1875 C 4.332031 -8.15625 4.375 -8.109375 4.40625 -8.046875 Z M 2.75 -2.296875 L 5.421875 -2.296875 L 4.09375 -5.53125 Z M 2.75 -2.296875 "/></g></g></g><g fill="#0a26f5" fill-opacity="1"><g transform="translate(169.378679, 165.001806)"><g><path d="M 2.34375 -7.96875 L 2.34375 -3.34375 C 2.34375 -3.050781 2.390625 -2.785156 2.484375 -2.546875 C 2.578125 -2.304688 2.707031 -2.09375 2.875 -1.90625 C 3.050781 -1.726562 3.253906 -1.59375 3.484375 -1.5 C 3.722656 -1.40625 3.984375 -1.359375 4.265625 -1.359375 C 4.535156 -1.359375 4.785156 -1.40625 5.015625 -1.5 C 5.253906 -1.59375 5.457031 -1.726562 5.625 -1.90625 C 5.800781 -2.09375 5.9375 -2.304688 6.03125 -2.546875 C 6.125 -2.785156 6.171875 -3.050781 6.171875 -3.34375 L 6.171875 -7.96875 C 6.171875 -8.09375 6.238281 -8.15625 6.375 -8.15625 L 7.5 -8.15625 C 7.625 -8.15625 7.6875 -8.09375 7.6875 -7.96875 L 7.6875 -3.328125 C 7.6875 -2.816406 7.601562 -2.347656 7.4375 -1.921875 C 7.269531 -1.503906 7.035156 -1.140625 6.734375 -0.828125 C 6.429688 -0.523438 6.066406 -0.289062 5.640625 -0.125 C 5.222656 0.0390625 4.765625 0.125 4.265625 0.125 C 3.753906 0.125 3.285156 0.0390625 2.859375 -0.125 C 2.441406 -0.289062 2.078125 -0.53125 1.765625 -0.84375 C 1.460938 -1.15625 1.226562 -1.519531 1.0625 -1.9375 C 0.90625 -2.363281 0.828125 -2.835938 0.828125 -3.359375 L 0.828125 -7.96875 C 0.828125 -8.09375 0.882812 -8.15625 1 -8.15625 L 2.15625 -8.15625 C 2.28125 -8.15625 2.34375 -8.09375 2.34375 -7.96875 Z M 2.34375 -7.96875 "/></g></g></g><g fill="#0a26f5" fill-opacity="1"><g transform="translate(177.898198, 165.001806)"><g><path d="M 0.3125 -7.0625 L 0.3125 -7.90625 C 0.3125 -8.0625 0.390625 -8.140625 0.546875 -8.140625 L 6.140625 -8.140625 C 6.210938 -8.140625 6.265625 -8.117188 6.296875 -8.078125 C 6.335938 -8.035156 6.359375 -7.976562 6.359375 -7.90625 L 6.359375 -7.0625 C 6.359375 -6.90625 6.285156 -6.828125 6.140625 -6.828125 L 4.09375 -6.828125 L 4.09375 -0.234375 C 4.09375 -0.078125 4.007812 0 3.84375 0 L 2.8125 0 C 2.65625 0 2.578125 -0.078125 2.578125 -0.234375 L 2.578125 -6.828125 L 0.546875 -6.828125 C 0.472656 -6.828125 0.414062 -6.847656 0.375 -6.890625 C 0.332031 -6.929688 0.3125 -6.988281 0.3125 -7.0625 Z M 0.3125 -7.0625 "/></g></g></g><g fill="#0a26f5" fill-opacity="1"><g transform="translate(184.578698, 165.001806)"><g><path d="M 0.484375 -4.0625 C 0.484375 -4.53125 0.550781 -4.976562 0.6875 -5.40625 C 0.832031 -5.832031 1.03125 -6.21875 1.28125 -6.5625 C 1.539062 -6.90625 1.84375 -7.207031 2.1875 -7.46875 C 2.539062 -7.726562 2.929688 -7.925781 3.359375 -8.0625 C 3.785156 -8.195312 4.234375 -8.265625 4.703125 -8.265625 C 5.179688 -8.265625 5.628906 -8.195312 6.046875 -8.0625 C 6.472656 -7.925781 6.863281 -7.726562 7.21875 -7.46875 C 7.570312 -7.207031 7.875 -6.90625 8.125 -6.5625 C 8.382812 -6.21875 8.582031 -5.832031 8.71875 -5.40625 C 8.863281 -4.976562 8.9375 -4.53125 8.9375 -4.0625 C 8.9375 -3.59375 8.863281 -3.144531 8.71875 -2.71875 C 8.582031 -2.300781 8.382812 -1.914062 8.125 -1.5625 C 7.875 -1.21875 7.570312 -0.914062 7.21875 -0.65625 C 6.863281 -0.40625 6.472656 -0.210938 6.046875 -0.078125 C 5.628906 0.0546875 5.179688 0.125 4.703125 0.125 C 4.234375 0.125 3.785156 0.0546875 3.359375 -0.078125 C 2.929688 -0.210938 2.539062 -0.40625 2.1875 -0.65625 C 1.84375 -0.914062 1.539062 -1.21875 1.28125 -1.5625 C 1.03125 -1.914062 0.832031 -2.300781 0.6875 -2.71875 C 0.550781 -3.144531 0.484375 -3.59375 0.484375 -4.0625 Z M 2 -4.0625 C 2 -3.675781 2.066406 -3.320312 2.203125 -3 C 2.335938 -2.675781 2.53125 -2.394531 2.78125 -2.15625 C 3.03125 -1.914062 3.316406 -1.726562 3.640625 -1.59375 C 3.972656 -1.457031 4.328125 -1.390625 4.703125 -1.390625 C 5.085938 -1.390625 5.441406 -1.457031 5.765625 -1.59375 C 6.097656 -1.726562 6.390625 -1.914062 6.640625 -2.15625 C 6.890625 -2.394531 7.082031 -2.675781 7.21875 -3 C 7.351562 -3.320312 7.421875 -3.675781 7.421875 -4.0625 C 7.421875 -4.445312 7.347656 -4.800781 7.203125 -5.125 C 7.066406 -5.445312 6.875 -5.726562 6.625 -5.96875 C 6.382812 -6.21875 6.097656 -6.410156 5.765625 -6.546875 C 5.441406 -6.691406 5.085938 -6.765625 4.703125 -6.765625 C 4.328125 -6.765625 3.972656 -6.691406 3.640625 -6.546875 C 3.316406 -6.410156 3.03125 -6.21875 2.78125 -5.96875 C 2.53125 -5.726562 2.335938 -5.445312 2.203125 -5.125 C 2.066406 -4.800781 2 -4.445312 2 -4.0625 Z M 2 -4.0625 "/></g></g></g><g fill="#0a26f5" fill-opacity="1"><g transform="translate(197.446434, 165.001806)"><g><path d="M 3.5625 -8.140625 C 4.082031 -8.140625 4.5625 -8.0625 5 -7.90625 C 5.4375 -7.75 5.816406 -7.523438 6.140625 -7.234375 C 6.460938 -6.941406 6.710938 -6.597656 6.890625 -6.203125 C 7.066406 -5.816406 7.15625 -5.390625 7.15625 -4.921875 C 7.15625 -4.453125 7.066406 -4.019531 6.890625 -3.625 C 6.710938 -3.238281 6.460938 -2.898438 6.140625 -2.609375 C 5.816406 -2.328125 5.4375 -2.109375 5 -1.953125 C 4.5625 -1.796875 4.082031 -1.71875 3.5625 -1.71875 L 2.484375 -1.71875 L 2.484375 -0.234375 C 2.484375 -0.160156 2.460938 -0.101562 2.421875 -0.0625 C 2.378906 -0.0195312 2.316406 0 2.234375 0 L 1.21875 0 C 1.132812 0 1.070312 -0.0195312 1.03125 -0.0625 C 0.988281 -0.101562 0.96875 -0.160156 0.96875 -0.234375 L 0.96875 -7.90625 C 0.96875 -7.976562 0.988281 -8.035156 1.03125 -8.078125 C 1.082031 -8.117188 1.144531 -8.140625 1.21875 -8.140625 L 1.765625 -8.140625 C 1.878906 -8.140625 1.976562 -8.140625 2.0625 -8.140625 C 2.15625 -8.140625 2.222656 -8.140625 2.265625 -8.140625 Z M 3.453125 -3.046875 C 3.773438 -3.046875 4.066406 -3.085938 4.328125 -3.171875 C 4.597656 -3.265625 4.828125 -3.394531 5.015625 -3.5625 C 5.210938 -3.738281 5.363281 -3.941406 5.46875 -4.171875 C 5.582031 -4.398438 5.640625 -4.648438 5.640625 -4.921875 C 5.640625 -5.203125 5.582031 -5.457031 5.46875 -5.6875 C 5.363281 -5.914062 5.210938 -6.113281 5.015625 -6.28125 C 4.828125 -6.445312 4.597656 -6.578125 4.328125 -6.671875 C 4.066406 -6.765625 3.773438 -6.8125 3.453125 -6.8125 L 2.484375 -6.8125 L 2.484375 -3.046875 Z M 3.453125 -3.046875 "/></g></g></g><g fill="#0a26f5" fill-opacity="1"><g transform="translate(205.054489, 165.001806)"><g><path d="M 7.890625 -0.265625 C 7.921875 -0.179688 7.921875 -0.113281 7.890625 -0.0625 C 7.859375 -0.0078125 7.800781 0.015625 7.71875 0.015625 L 6.5625 0.015625 C 6.5 0.015625 6.441406 -0.00390625 6.390625 -0.046875 C 6.347656 -0.0859375 6.3125 -0.140625 6.28125 -0.203125 L 5.953125 -1 L 2.21875 -1 L 1.890625 -0.203125 C 1.859375 -0.148438 1.820312 -0.101562 1.78125 -0.0625 C 1.738281 -0.0195312 1.679688 0 1.609375 0 L 0.46875 0 C 0.375 0 0.304688 -0.0195312 0.265625 -0.0625 C 0.234375 -0.113281 0.238281 -0.179688 0.28125 -0.265625 L 3.75 -8.046875 C 3.78125 -8.109375 3.820312 -8.15625 3.875 -8.1875 C 3.925781 -8.226562 3.984375 -8.25 4.046875 -8.25 L 4.109375 -8.25 C 4.171875 -8.25 4.226562 -8.226562 4.28125 -8.1875 C 4.332031 -8.15625 4.375 -8.109375 4.40625 -8.046875 Z M 2.75 -2.296875 L 5.421875 -2.296875 L 4.09375 -5.53125 Z M 2.75 -2.296875 "/></g></g></g><g fill="#0a26f5" fill-opacity="1"><g transform="translate(213.220145, 165.001806)"><g><path d="M 6.09375 -2.40625 L 7.1875 -0.28125 C 7.21875 -0.195312 7.21875 -0.128906 7.1875 -0.078125 C 7.164062 -0.0234375 7.113281 0 7.03125 0 L 5.84375 0 C 5.789062 0 5.738281 -0.015625 5.6875 -0.046875 C 5.632812 -0.0859375 5.597656 -0.132812 5.578125 -0.1875 L 4.734375 -1.921875 C 4.640625 -1.910156 4.546875 -1.898438 4.453125 -1.890625 C 4.359375 -1.878906 4.265625 -1.875 4.171875 -1.875 L 2.484375 -1.875 L 2.484375 -0.234375 C 2.484375 -0.160156 2.457031 -0.101562 2.40625 -0.0625 C 2.363281 -0.0195312 2.304688 0 2.234375 0 L 1.21875 0 C 1.144531 0 1.082031 -0.0195312 1.03125 -0.0625 C 0.988281 -0.101562 0.96875 -0.160156 0.96875 -0.234375 L 0.96875 -7.921875 C 0.96875 -7.984375 0.988281 -8.035156 1.03125 -8.078125 C 1.082031 -8.117188 1.144531 -8.140625 1.21875 -8.140625 L 1.484375 -8.140625 C 1.640625 -8.140625 1.789062 -8.140625 1.9375 -8.140625 C 2.09375 -8.140625 2.203125 -8.140625 2.265625 -8.140625 L 4.171875 -8.140625 C 4.648438 -8.140625 5.085938 -8.0625 5.484375 -7.90625 C 5.890625 -7.757812 6.238281 -7.539062 6.53125 -7.25 C 6.832031 -6.96875 7.0625 -6.632812 7.21875 -6.25 C 7.382812 -5.863281 7.46875 -5.441406 7.46875 -4.984375 C 7.46875 -4.429688 7.34375 -3.929688 7.09375 -3.484375 C 6.84375 -3.046875 6.507812 -2.6875 6.09375 -2.40625 Z M 4.078125 -3.140625 C 4.441406 -3.140625 4.765625 -3.21875 5.046875 -3.375 C 5.328125 -3.539062 5.546875 -3.757812 5.703125 -4.03125 C 5.867188 -4.3125 5.953125 -4.632812 5.953125 -5 C 5.953125 -5.257812 5.90625 -5.5 5.8125 -5.71875 C 5.71875 -5.945312 5.585938 -6.140625 5.421875 -6.296875 C 5.253906 -6.460938 5.054688 -6.59375 4.828125 -6.6875 C 4.597656 -6.78125 4.347656 -6.828125 4.078125 -6.828125 L 2.484375 -6.828125 L 2.484375 -3.140625 Z M 4.078125 -3.140625 "/></g></g></g><g fill="#0a26f5" fill-opacity="1"><g transform="translate(221.353632, 165.001806)"><g><path d="M 0.3125 -7.0625 L 0.3125 -7.90625 C 0.3125 -8.0625 0.390625 -8.140625 0.546875 -8.140625 L 6.140625 -8.140625 C 6.210938 -8.140625 6.265625 -8.117188 6.296875 -8.078125 C 6.335938 -8.035156 6.359375 -7.976562 6.359375 -7.90625 L 6.359375 -7.0625 C 6.359375 -6.90625 6.285156 -6.828125 6.140625 -6.828125 L 4.09375 -6.828125 L 4.09375 -0.234375 C 4.09375 -0.078125 4.007812 0 3.84375 0 L 2.8125 0 C 2.65625 0 2.578125 -0.078125 2.578125 -0.234375 L 2.578125 -6.828125 L 0.546875 -6.828125 C 0.472656 -6.828125 0.414062 -6.847656 0.375 -6.890625 C 0.332031 -6.929688 0.3125 -6.988281 0.3125 -7.0625 Z M 0.3125 -7.0625 "/></g></g></g><g fill="#0a26f5" fill-opacity="1"><g transform="translate(228.034132, 165.001806)"><g><path d="M 3.671875 0.125 C 3.367188 0.125 3.066406 0.09375 2.765625 0.03125 C 2.460938 -0.03125 2.171875 -0.125 1.890625 -0.25 C 1.617188 -0.375 1.367188 -0.519531 1.140625 -0.6875 C 0.921875 -0.851562 0.738281 -1.035156 0.59375 -1.234375 C 0.550781 -1.285156 0.535156 -1.34375 0.546875 -1.40625 C 0.554688 -1.46875 0.585938 -1.523438 0.640625 -1.578125 L 1.34375 -2.28125 C 1.394531 -2.320312 1.453125 -2.335938 1.515625 -2.328125 C 1.578125 -2.328125 1.640625 -2.296875 1.703125 -2.234375 C 1.859375 -2.054688 2.039062 -1.898438 2.25 -1.765625 C 2.46875 -1.628906 2.691406 -1.519531 2.921875 -1.4375 C 3.160156 -1.351562 3.394531 -1.3125 3.625 -1.3125 C 4.082031 -1.3125 4.429688 -1.398438 4.671875 -1.578125 C 4.910156 -1.765625 5.03125 -2.015625 5.03125 -2.328125 C 5.03125 -2.523438 4.960938 -2.691406 4.828125 -2.828125 C 4.703125 -2.960938 4.507812 -3.085938 4.25 -3.203125 C 4 -3.316406 3.6875 -3.4375 3.3125 -3.5625 C 2.925781 -3.6875 2.582031 -3.820312 2.28125 -3.96875 C 1.988281 -4.113281 1.734375 -4.273438 1.515625 -4.453125 C 1.304688 -4.640625 1.144531 -4.859375 1.03125 -5.109375 C 0.925781 -5.359375 0.875 -5.644531 0.875 -5.96875 C 0.875 -6.4375 0.988281 -6.84375 1.21875 -7.1875 C 1.445312 -7.53125 1.769531 -7.796875 2.1875 -7.984375 C 2.601562 -8.171875 3.09375 -8.265625 3.65625 -8.265625 C 3.96875 -8.265625 4.269531 -8.226562 4.5625 -8.15625 C 4.863281 -8.082031 5.132812 -7.972656 5.375 -7.828125 C 5.625 -7.691406 5.828125 -7.53125 5.984375 -7.34375 C 6.035156 -7.28125 6.0625 -7.210938 6.0625 -7.140625 C 6.070312 -7.078125 6.050781 -7.015625 6 -6.953125 L 5.4375 -6.3125 C 5.363281 -6.21875 5.285156 -6.175781 5.203125 -6.1875 C 5.128906 -6.195312 5.050781 -6.226562 4.96875 -6.28125 C 4.78125 -6.457031 4.5625 -6.59375 4.3125 -6.6875 C 4.070312 -6.78125 3.832031 -6.828125 3.59375 -6.828125 C 3.207031 -6.828125 2.90625 -6.742188 2.6875 -6.578125 C 2.46875 -6.421875 2.359375 -6.210938 2.359375 -5.953125 C 2.359375 -5.753906 2.4375 -5.582031 2.59375 -5.4375 C 2.75 -5.289062 2.957031 -5.160156 3.21875 -5.046875 C 3.476562 -4.929688 3.769531 -4.820312 4.09375 -4.71875 C 4.414062 -4.601562 4.726562 -4.484375 5.03125 -4.359375 C 5.332031 -4.234375 5.597656 -4.082031 5.828125 -3.90625 C 6.066406 -3.738281 6.253906 -3.523438 6.390625 -3.265625 C 6.535156 -3.015625 6.609375 -2.707031 6.609375 -2.34375 C 6.609375 -1.96875 6.535156 -1.625 6.390625 -1.3125 C 6.242188 -1.007812 6.039062 -0.75 5.78125 -0.53125 C 5.519531 -0.320312 5.210938 -0.160156 4.859375 -0.046875 C 4.503906 0.0664062 4.109375 0.125 3.671875 0.125 Z M 3.671875 0.125 "/></g></g></g><g clip-path="url(#dbc0a11bcc)"><path fill="#0a26f5" d="M 214.234375 146.09375 C 214.179688 145.910156 214.0625 145.769531 213.914062 145.667969 C 212.75 146.421875 211.558594 146.972656 210.34375 147.328125 L 210.320312 147.832031 C 210.320312 147.832031 208.207031 147.738281 208.207031 147.738281 C 207.863281 147.773438 207.519531 147.785156 207.175781 147.785156 C 207.105469 147.785156 207.039062 147.785156 206.96875 147.785156 C 205.6875 147.886719 203.753906 148.207031 201.761719 149.089844 C 201.96875 149.457031 202.175781 149.832031 202.371094 150.210938 L 200.996094 150.210938 C 200.914062 150.003906 200.824219 149.800781 200.734375 149.59375 C 200.390625 149.777344 200.058594 149.984375 199.714844 150.210938 L 196.625 150.210938 C 200.113281 146.835938 204.542969 146.011719 206.914062 145.828125 C 207.003906 145.828125 207.082031 145.828125 207.175781 145.828125 C 207.496094 145.828125 207.816406 145.804688 208.125 145.78125 C 208.214844 145.78125 208.273438 145.78125 208.285156 145.78125 L 208.480469 145.792969 L 208.480469 145.738281 C 210.941406 145.382812 213.34375 144.042969 215.644531 141.742188 C 220.277344 137.109375 220.324219 134.054688 220.324219 133.929688 L 220.324219 133.503906 L 210 138.449219 C 209.417969 138.242188 206.523438 137.121094 204.761719 133.996094 C 203.652344 132.039062 203.492188 129.660156 204.292969 127.449219 C 206.796875 126.078125 214.578125 122.425781 214.921875 122.265625 L 215.402344 122.050781 L 214.957031 121.796875 C 214.855469 121.742188 212.484375 120.4375 209.347656 119.933594 C 206.398438 119.453125 202.164062 119.613281 198.730469 123.035156 C 196.203125 125.5625 194.738281 128.585938 194.496094 131.789062 L 194.484375 131.789062 L 194.484375 131.960938 C 194.460938 132.324219 194.449219 132.691406 194.460938 133.035156 C 194.347656 135.027344 193.671875 140.039062 189.90625 143.804688 L 183.511719 150.199219 L 167.925781 150.199219 C 170.980469 146.6875 175.488281 144.46875 180.511719 144.46875 C 182.308594 144.46875 184.050781 144.753906 185.675781 145.28125 L 188.535156 142.417969 C 191.785156 139.167969 192.402344 134.796875 192.515625 132.988281 C 192.503906 132.636719 192.515625 132.269531 192.539062 131.890625 L 192.539062 130.371094 C 190.226562 129.464844 187.8125 128.824219 185.34375 128.457031 L 184.976562 128.402344 L 184.964844 125.230469 C 184.964844 125.003906 184.871094 124.785156 184.710938 124.625 C 184.550781 124.464844 184.335938 124.371094 184.105469 124.371094 L 176.589844 124.40625 C 176.117188 124.40625 175.730469 124.796875 175.730469 125.265625 L 175.742188 128.433594 L 175.375 128.492188 C 171.816406 129.042969 168.394531 130.175781 165.203125 131.84375 L 164.871094 132.015625 L 162.992188 129.453125 C 162.71875 129.074219 162.179688 128.984375 161.792969 129.269531 L 155.726562 133.710938 C 155.351562 133.984375 155.257812 134.523438 155.542969 134.910156 L 157.421875 137.476562 L 157.15625 137.738281 C 154.605469 140.289062 152.488281 143.207031 150.886719 146.433594 L 150.726562 146.765625 L 147.707031 145.792969 C 147.257812 145.644531 146.765625 145.898438 146.628906 146.34375 L 145.40625 150.175781 L 138.4375 150.175781 L 138.4375 152.339844 L 222.578125 152.339844 L 222.578125 150.175781 L 215.597656 150.175781 Z M 158.667969 150.222656 C 160.328125 146.914062 162.71875 144.042969 165.625 141.800781 C 163.292969 144.125 161.378906 146.984375 160.042969 150.222656 Z M 207.347656 138.550781 C 207.347656 138.550781 200.515625 137.382812 202.78125 128.789062 C 202.78125 128.789062 202.027344 135.703125 207.347656 138.550781 Z M 212.703125 122.449219 L 203.695312 126.777344 C 203.683594 126.789062 206.582031 123.8125 212.703125 122.449219 Z M 199.429688 123.800781 C 201.589844 121.636719 204.121094 120.894531 206.363281 120.792969 C 204.382812 121.078125 202.242188 121.902344 200.34375 123.800781 C 197.976562 126.167969 196.589844 128.972656 196.339844 131.902344 C 196.304688 132.234375 196.292969 132.566406 196.292969 132.886719 C 196.292969 136.160156 197.675781 138.710938 198.980469 140.015625 C 201.671875 142.703125 204.429688 144.078125 207.175781 144.089844 C 207.554688 144.089844 207.929688 144.066406 208.296875 144.019531 C 210.609375 143.722656 212.898438 142.453125 215.105469 140.234375 C 217.691406 137.648438 218.753906 135.632812 219.191406 134.421875 C 218.972656 135.460938 218.136719 137.820312 214.957031 141 C 212.75 143.207031 210.425781 144.457031 208.066406 144.707031 C 207.691406 144.753906 207.300781 144.765625 206.921875 144.753906 C 204.109375 144.671875 201.246094 143.195312 198.433594 140.382812 C 197.070312 139.019531 195.59375 136.375 195.515625 133.023438 C 195.503906 132.691406 195.515625 132.359375 195.539062 132.015625 C 195.710938 129.007812 197.058594 126.179688 199.429688 123.800781 Z M 187.378906 150.222656 L 192.425781 145.175781 C 193.089844 144.511719 194.234375 144.570312 194.976562 145.3125 C 195.722656 146.058594 195.777344 147.203125 195.113281 147.867188 L 192.746094 150.234375 L 187.378906 150.234375 Z M 187.378906 150.222656 " fill-opacity="1" fill-rule="nonzero"/></g><g clip-path="url(#ff78fda677)"><path fill="#0a26f5" d="M 138.4375 169.960938 L 138.4375 172.125 L 145.417969 172.125 L 146.550781 175.546875 C 148.542969 174.277344 150.613281 173.636719 152.730469 173.636719 C 153.152344 173.636719 153.574219 173.65625 154 173.714844 C 155.222656 173.441406 156.710938 172.960938 158.1875 172.125 L 161.539062 172.125 C 159.046875 174.308594 156.152344 175.273438 154.066406 175.695312 C 150.921875 175.203125 147.867188 176.425781 144.960938 179.324219 C 140.714844 183.566406 140.667969 186.359375 140.667969 186.472656 L 140.667969 186.898438 L 150.121094 182.367188 C 150.667969 182.5625 153.289062 183.589844 154.878906 186.417969 C 155.886719 188.203125 156.035156 190.363281 155.316406 192.367188 C 153.015625 193.625 145.921875 196.957031 145.613281 197.09375 L 145.644531 197.171875 L 145.613281 197.09375 L 145.144531 197.3125 L 145.589844 197.5625 C 145.613281 197.574219 147.820312 198.796875 150.714844 199.269531 C 151.390625 199.371094 152.132812 199.449219 152.925781 199.449219 C 155.304688 199.449219 158.074219 198.785156 160.429688 196.429688 C 163.667969 193.191406 164.34375 189.792969 164.332031 187.503906 C 164.675781 184.847656 165.730469 181.0625 168.773438 178.03125 L 174.6875 172.113281 L 193.078125 172.113281 C 190.023438 175.625 185.511719 177.847656 180.488281 177.847656 C 177.925781 177.847656 175.5 177.261719 173.328125 176.234375 L 170.15625 179.402344 C 167.546875 182.011719 166.621094 185.296875 166.289062 187.640625 C 166.289062 188.570312 166.1875 189.644531 165.890625 190.8125 C 168.96875 192.332031 172.25 193.351562 175.636719 193.855469 L 176.003906 193.914062 L 176.015625 197.082031 C 176.015625 197.3125 176.109375 197.527344 176.269531 197.6875 C 176.429688 197.847656 176.644531 197.941406 176.875 197.941406 L 184.390625 197.90625 C 184.621094 197.90625 184.839844 197.8125 185 197.652344 C 185.160156 197.492188 185.25 197.277344 185.25 197.046875 L 185.238281 193.878906 L 185.605469 193.820312 C 189.164062 193.273438 192.585938 192.136719 195.777344 190.46875 L 196.109375 190.296875 L 197.988281 192.847656 C 198.125 193.03125 198.320312 193.15625 198.546875 193.191406 C 198.777344 193.226562 199.003906 193.167969 199.1875 193.03125 L 205.253906 188.589844 C 205.628906 188.316406 205.722656 187.777344 205.4375 187.390625 L 203.558594 184.828125 L 203.824219 184.5625 C 206.375 182.011719 208.492188 179.09375 210.09375 175.867188 L 210.253906 175.535156 L 213.273438 176.507812 C 213.722656 176.65625 214.210938 176.40625 214.351562 175.957031 L 215.574219 172.125 L 222.566406 172.125 L 222.566406 169.960938 Z M 152.5 182.125 C 152.5 182.125 158.898438 183.214844 156.78125 191.28125 C 156.78125 191.28125 157.488281 184.792969 152.5 182.125 Z M 147.488281 197.21875 L 155.933594 193.15625 C 155.933594 193.15625 153.222656 195.9375 147.488281 197.21875 Z M 163.589844 188.257812 C 163.417969 191.074219 162.148438 193.730469 159.925781 195.949219 C 157.890625 197.984375 155.53125 198.671875 153.425781 198.777344 C 155.28125 198.511719 157.296875 197.734375 159.082031 195.949219 C 161.300781 193.730469 162.605469 191.097656 162.832031 188.351562 C 162.855469 188.042969 162.878906 187.722656 162.867188 187.425781 C 162.867188 184.355469 161.5625 181.953125 160.351562 180.742188 C 157.820312 178.210938 155.234375 176.929688 152.660156 176.917969 C 152.304688 176.917969 151.960938 176.941406 151.609375 176.988281 C 149.445312 177.261719 147.292969 178.464844 145.222656 180.535156 C 142.796875 182.960938 141.800781 184.847656 141.390625 185.992188 C 141.59375 185.019531 142.386719 182.8125 145.359375 179.824219 C 147.429688 177.753906 149.605469 176.574219 151.8125 176.347656 C 152.167969 176.3125 152.523438 176.289062 152.890625 176.300781 C 155.53125 176.382812 158.210938 177.753906 160.855469 180.410156 C 162.125 181.679688 163.519531 184.164062 163.601562 187.308594 C 163.613281 187.617188 163.613281 187.9375 163.589844 188.257812 Z M 167.546875 175.421875 C 166.882812 176.085938 165.738281 176.027344 164.996094 175.28125 C 164.253906 174.539062 164.195312 173.394531 164.859375 172.730469 L 165.464844 172.125 L 170.832031 172.125 Z M 195.402344 180.546875 C 197.734375 178.222656 199.644531 175.363281 200.984375 172.125 L 202.359375 172.125 C 200.699219 175.433594 198.308594 178.304688 195.402344 180.546875 Z M 195.402344 180.546875 " fill-opacity="1" fill-rule="nonzero"/></g><g fill="#ffffff" fill-opacity="1"><g transform="translate(173.697145, 186.14373)"><g><path d="M 1.1875 0.984375 C 1.082031 0.910156 0.988281 0.820312 0.90625 0.71875 C 0.820312 0.613281 0.75 0.507812 0.6875 0.40625 C 0.625 0.300781 0.578125 0.191406 0.546875 0.078125 C 0.515625 -0.0351562 0.503906 -0.144531 0.515625 -0.25 C 0.523438 -0.28125 0.535156 -0.300781 0.546875 -0.3125 C 0.566406 -0.332031 0.59375 -0.351562 0.625 -0.375 L 1.03125 -0.421875 C 1.0625 -0.421875 1.085938 -0.410156 1.109375 -0.390625 C 1.128906 -0.367188 1.140625 -0.335938 1.140625 -0.296875 C 1.148438 -0.203125 1.171875 -0.101562 1.203125 0 C 1.242188 0.101562 1.289062 0.195312 1.34375 0.28125 C 1.40625 0.375 1.472656 0.445312 1.546875 0.5 C 1.691406 0.625 1.828125 0.6875 1.953125 0.6875 C 2.085938 0.695312 2.195312 0.644531 2.28125 0.53125 C 2.332031 0.46875 2.351562 0.394531 2.34375 0.3125 C 2.332031 0.226562 2.300781 0.132812 2.25 0.03125 C 2.195312 -0.0625 2.125 -0.179688 2.03125 -0.328125 C 1.925781 -0.460938 1.84375 -0.59375 1.78125 -0.71875 C 1.726562 -0.84375 1.691406 -0.960938 1.671875 -1.078125 C 1.648438 -1.203125 1.648438 -1.316406 1.671875 -1.421875 C 1.703125 -1.535156 1.765625 -1.648438 1.859375 -1.765625 C 1.972656 -1.910156 2.109375 -2.007812 2.265625 -2.0625 C 2.429688 -2.125 2.609375 -2.128906 2.796875 -2.078125 C 2.992188 -2.035156 3.1875 -1.941406 3.375 -1.796875 C 3.476562 -1.710938 3.566406 -1.617188 3.640625 -1.515625 C 3.710938 -1.421875 3.769531 -1.316406 3.8125 -1.203125 C 3.863281 -1.085938 3.898438 -0.984375 3.921875 -0.890625 C 3.910156 -0.847656 3.894531 -0.816406 3.875 -0.796875 C 3.851562 -0.773438 3.832031 -0.757812 3.8125 -0.75 L 3.453125 -0.6875 C 3.398438 -0.664062 3.363281 -0.664062 3.34375 -0.6875 C 3.332031 -0.71875 3.3125 -0.753906 3.28125 -0.796875 C 3.269531 -0.898438 3.234375 -1 3.171875 -1.09375 C 3.117188 -1.195312 3.050781 -1.28125 2.96875 -1.34375 C 2.84375 -1.445312 2.71875 -1.5 2.59375 -1.5 C 2.476562 -1.5 2.390625 -1.457031 2.328125 -1.375 C 2.273438 -1.300781 2.253906 -1.21875 2.265625 -1.125 C 2.285156 -1.039062 2.320312 -0.945312 2.375 -0.84375 C 2.4375 -0.738281 2.503906 -0.625 2.578125 -0.5 C 2.671875 -0.382812 2.75 -0.265625 2.8125 -0.140625 C 2.882812 -0.0234375 2.929688 0.0859375 2.953125 0.203125 C 2.984375 0.328125 2.988281 0.453125 2.96875 0.578125 C 2.957031 0.703125 2.90625 0.820312 2.8125 0.9375 C 2.71875 1.0625 2.601562 1.15625 2.46875 1.21875 C 2.332031 1.289062 2.195312 1.328125 2.0625 1.328125 C 1.925781 1.328125 1.78125 1.296875 1.625 1.234375 C 1.476562 1.179688 1.332031 1.097656 1.1875 0.984375 Z M 1.1875 0.984375 "/></g></g></g><g fill="#ffffff" fill-opacity="1"><g transform="translate(176.438065, 188.246944)"><g><path d="M 2.890625 -2.390625 C 3.078125 -2.285156 3.238281 -2.160156 3.375 -2.015625 C 3.519531 -1.878906 3.625 -1.722656 3.6875 -1.546875 C 3.757812 -1.378906 3.789062 -1.207031 3.78125 -1.03125 C 3.769531 -0.851562 3.71875 -0.675781 3.625 -0.5 C 3.539062 -0.320312 3.425781 -0.171875 3.28125 -0.046875 C 3.144531 0.0664062 2.988281 0.144531 2.8125 0.1875 C 2.632812 0.226562 2.445312 0.234375 2.25 0.203125 C 2.050781 0.179688 1.859375 0.117188 1.671875 0.015625 L 1.265625 -0.1875 L 0.984375 0.390625 C 0.960938 0.410156 0.941406 0.425781 0.921875 0.4375 C 0.898438 0.445312 0.875 0.445312 0.84375 0.4375 L 0.453125 0.234375 C 0.429688 0.222656 0.410156 0.203125 0.390625 0.171875 C 0.378906 0.148438 0.382812 0.128906 0.40625 0.109375 L 1.875 -2.796875 C 1.882812 -2.828125 1.898438 -2.84375 1.921875 -2.84375 C 1.953125 -2.84375 1.976562 -2.835938 2 -2.828125 L 2.21875 -2.71875 C 2.25 -2.695312 2.28125 -2.675781 2.3125 -2.65625 C 2.351562 -2.644531 2.378906 -2.632812 2.390625 -2.625 Z M 1.90625 -0.5 C 2.019531 -0.4375 2.132812 -0.394531 2.25 -0.375 C 2.363281 -0.351562 2.472656 -0.351562 2.578125 -0.375 C 2.679688 -0.40625 2.773438 -0.453125 2.859375 -0.515625 C 2.941406 -0.585938 3.007812 -0.675781 3.0625 -0.78125 C 3.113281 -0.875 3.140625 -0.972656 3.140625 -1.078125 C 3.148438 -1.191406 3.132812 -1.300781 3.09375 -1.40625 C 3.050781 -1.507812 2.988281 -1.601562 2.90625 -1.6875 C 2.820312 -1.769531 2.722656 -1.84375 2.609375 -1.90625 L 2.234375 -2.09375 L 1.53125 -0.6875 Z M 1.90625 -0.5 "/></g></g></g><g fill="#ffffff" fill-opacity="1"><g transform="translate(179.737304, 189.877783)"><g><path d="M 3.25 0.75 C 3.257812 0.78125 3.253906 0.804688 3.234375 0.828125 C 3.210938 0.847656 3.1875 0.851562 3.15625 0.84375 L 2.671875 0.71875 C 2.648438 0.707031 2.628906 0.691406 2.609375 0.671875 C 2.597656 0.648438 2.585938 0.628906 2.578125 0.609375 L 2.546875 0.234375 L 1.015625 -0.171875 L 0.796875 0.109375 C 0.773438 0.140625 0.75 0.160156 0.71875 0.171875 C 0.695312 0.179688 0.679688 0.179688 0.671875 0.171875 L 0.1875 0.046875 C 0.15625 0.0351562 0.132812 0.0195312 0.125 0 C 0.113281 -0.0195312 0.125 -0.046875 0.15625 -0.078125 L 2.40625 -2.890625 C 2.4375 -2.898438 2.457031 -2.90625 2.46875 -2.90625 C 2.488281 -2.914062 2.507812 -2.921875 2.53125 -2.921875 L 2.5625 -2.90625 C 2.59375 -2.90625 2.617188 -2.894531 2.640625 -2.875 C 2.660156 -2.863281 2.671875 -2.835938 2.671875 -2.796875 Z M 1.375 -0.640625 L 2.46875 -0.34375 L 2.28125 -1.8125 Z M 1.375 -0.640625 "/></g></g></g><g fill="#ffffff" fill-opacity="1"><g transform="translate(183.541154, 190.838974)"><g><path d="M 2.625 -0.890625 L 3.03125 0.03125 C 3.050781 0.0625 3.050781 0.0859375 3.03125 0.109375 C 3.019531 0.128906 3 0.140625 2.96875 0.140625 L 2.46875 0.109375 C 2.445312 0.109375 2.425781 0.0976562 2.40625 0.078125 C 2.382812 0.0664062 2.367188 0.0507812 2.359375 0.03125 L 2.03125 -0.71875 C 1.988281 -0.707031 1.945312 -0.703125 1.90625 -0.703125 C 1.875 -0.710938 1.835938 -0.71875 1.796875 -0.71875 L 1.078125 -0.75 L 1.046875 -0.046875 C 1.046875 -0.015625 1.035156 0.00390625 1.015625 0.015625 C 1.003906 0.0351562 0.984375 0.046875 0.953125 0.046875 L 0.515625 0.03125 C 0.484375 0.0195312 0.457031 0.0078125 0.4375 0 C 0.414062 -0.0195312 0.40625 -0.046875 0.40625 -0.078125 L 0.5625 -3.328125 C 0.5625 -3.359375 0.570312 -3.378906 0.59375 -3.390625 C 0.613281 -3.410156 0.640625 -3.414062 0.671875 -3.40625 L 0.78125 -3.40625 C 0.84375 -3.40625 0.90625 -3.398438 0.96875 -3.390625 C 1.039062 -3.390625 1.085938 -3.390625 1.109375 -3.390625 L 1.921875 -3.359375 C 2.117188 -3.347656 2.300781 -3.304688 2.46875 -3.234375 C 2.632812 -3.160156 2.773438 -3.0625 2.890625 -2.9375 C 3.015625 -2.8125 3.109375 -2.664062 3.171875 -2.5 C 3.234375 -2.332031 3.257812 -2.15625 3.25 -1.96875 C 3.238281 -1.726562 3.175781 -1.515625 3.0625 -1.328125 C 2.945312 -1.148438 2.800781 -1.003906 2.625 -0.890625 Z M 1.78125 -1.25 C 1.9375 -1.238281 2.070312 -1.265625 2.1875 -1.328125 C 2.3125 -1.390625 2.410156 -1.476562 2.484375 -1.59375 C 2.566406 -1.71875 2.609375 -1.851562 2.609375 -2 C 2.617188 -2.113281 2.601562 -2.21875 2.5625 -2.3125 C 2.519531 -2.40625 2.46875 -2.488281 2.40625 -2.5625 C 2.34375 -2.632812 2.257812 -2.6875 2.15625 -2.71875 C 2.0625 -2.757812 1.957031 -2.785156 1.84375 -2.796875 L 1.171875 -2.828125 L 1.109375 -1.28125 Z M 1.78125 -1.25 "/></g></g></g><g fill="#ffffff" fill-opacity="1"><g transform="translate(187.441554, 190.95908)"><g><path d="M 2.765625 -1.0625 C 2.804688 -1.070312 2.835938 -1.070312 2.859375 -1.0625 C 2.890625 -1.050781 2.910156 -1.023438 2.921875 -0.984375 L 2.984375 -0.59375 C 2.992188 -0.5625 2.988281 -0.535156 2.96875 -0.515625 C 2.945312 -0.492188 2.921875 -0.484375 2.890625 -0.484375 L 0.515625 -0.078125 C 0.441406 -0.0664062 0.398438 -0.09375 0.390625 -0.15625 L -0.140625 -3.359375 C -0.148438 -3.421875 -0.117188 -3.457031 -0.046875 -3.46875 L 2.296875 -3.859375 C 2.316406 -3.867188 2.335938 -3.863281 2.359375 -3.84375 C 2.390625 -3.832031 2.40625 -3.8125 2.40625 -3.78125 L 2.46875 -3.375 C 2.476562 -3.3125 2.453125 -3.273438 2.390625 -3.265625 L 0.5625 -2.96875 L 0.71875 -2.03125 L 2.140625 -2.265625 C 2.179688 -2.273438 2.210938 -2.269531 2.234375 -2.25 C 2.265625 -2.226562 2.28125 -2.203125 2.28125 -2.171875 L 2.34375 -1.8125 C 2.351562 -1.78125 2.347656 -1.753906 2.328125 -1.734375 C 2.304688 -1.710938 2.273438 -1.695312 2.234375 -1.6875 L 0.8125 -1.453125 L 0.9375 -0.765625 Z M 2.765625 -1.0625 "/></g></g></g><g fill="#ffffff" fill-opacity="1"><g transform="translate(191.036699, 190.26369)"><g/></g></g><g fill="#ffffff" fill-opacity="1"><g transform="translate(192.811732, 189.721722)"><g><path d="M -0.203125 -3.75 C -0.00390625 -3.851562 0.191406 -3.914062 0.390625 -3.9375 C 0.585938 -3.957031 0.769531 -3.941406 0.9375 -3.890625 C 1.113281 -3.835938 1.269531 -3.753906 1.40625 -3.640625 C 1.550781 -3.535156 1.664062 -3.394531 1.75 -3.21875 C 1.84375 -3.039062 1.894531 -2.859375 1.90625 -2.671875 C 1.914062 -2.484375 1.882812 -2.304688 1.8125 -2.140625 C 1.75 -1.984375 1.648438 -1.832031 1.515625 -1.6875 C 1.378906 -1.550781 1.210938 -1.429688 1.015625 -1.328125 L 0.609375 -1.125 L 0.890625 -0.546875 C 0.910156 -0.523438 0.914062 -0.503906 0.90625 -0.484375 C 0.894531 -0.460938 0.875 -0.441406 0.84375 -0.421875 L 0.453125 -0.234375 C 0.429688 -0.210938 0.40625 -0.207031 0.375 -0.21875 C 0.351562 -0.226562 0.332031 -0.242188 0.3125 -0.265625 L -1.140625 -3.171875 C -1.148438 -3.203125 -1.148438 -3.226562 -1.140625 -3.25 C -1.128906 -3.269531 -1.113281 -3.289062 -1.09375 -3.3125 L -0.875 -3.421875 C -0.84375 -3.429688 -0.804688 -3.445312 -0.765625 -3.46875 C -0.734375 -3.488281 -0.710938 -3.5 -0.703125 -3.5 Z M 0.734375 -1.8125 C 0.847656 -1.875 0.945312 -1.945312 1.03125 -2.03125 C 1.113281 -2.113281 1.175781 -2.203125 1.21875 -2.296875 C 1.269531 -2.398438 1.289062 -2.503906 1.28125 -2.609375 C 1.269531 -2.710938 1.238281 -2.816406 1.1875 -2.921875 C 1.132812 -3.023438 1.066406 -3.113281 0.984375 -3.1875 C 0.910156 -3.257812 0.816406 -3.304688 0.703125 -3.328125 C 0.585938 -3.359375 0.472656 -3.363281 0.359375 -3.34375 C 0.242188 -3.320312 0.128906 -3.28125 0.015625 -3.21875 L -0.359375 -3.03125 L 0.359375 -1.625 Z M 0.734375 -1.8125 "/></g></g></g><g fill="#ffffff" fill-opacity="1"><g transform="translate(196.083623, 188.036252)"><g><path d="M 2.53125 -2.15625 C 2.570312 -2.144531 2.59375 -2.125 2.59375 -2.09375 C 2.59375 -2.070312 2.578125 -2.054688 2.546875 -2.046875 L 2.15625 -1.734375 C 2.144531 -1.710938 2.125 -1.703125 2.09375 -1.703125 C 2.070312 -1.703125 2.050781 -1.707031 2.03125 -1.71875 L 1.703125 -1.90625 L 0.46875 -0.90625 L 0.5625 -0.578125 C 0.570312 -0.535156 0.570312 -0.503906 0.5625 -0.484375 C 0.5625 -0.460938 0.550781 -0.441406 0.53125 -0.421875 L 0.140625 -0.109375 C 0.117188 -0.0976562 0.0976562 -0.09375 0.078125 -0.09375 C 0.0546875 -0.101562 0.0390625 -0.125 0.03125 -0.15625 L -0.890625 -3.640625 C -0.890625 -3.671875 -0.882812 -3.695312 -0.875 -3.71875 C -0.863281 -3.75 -0.851562 -3.769531 -0.84375 -3.78125 L -0.8125 -3.796875 C -0.789062 -3.816406 -0.765625 -3.828125 -0.734375 -3.828125 C -0.710938 -3.835938 -0.691406 -3.828125 -0.671875 -3.796875 Z M 0.296875 -1.46875 L 1.1875 -2.1875 L -0.109375 -2.90625 Z M 0.296875 -1.46875 "/></g></g></g><g fill="#ffffff" fill-opacity="1"><g transform="translate(199.11542, 185.546066)"><g><path d="M 0.84375 -2.640625 L 1.828125 -2.421875 C 1.859375 -2.421875 1.878906 -2.40625 1.890625 -2.375 C 1.898438 -2.351562 1.894531 -2.332031 1.875 -2.3125 L 1.5625 -1.921875 C 1.539062 -1.898438 1.519531 -1.882812 1.5 -1.875 C 1.476562 -1.875 1.453125 -1.875 1.421875 -1.875 L 0.640625 -2.0625 C 0.609375 -2.019531 0.582031 -1.984375 0.5625 -1.953125 C 0.539062 -1.929688 0.515625 -1.90625 0.484375 -1.875 L 0.03125 -1.3125 L 0.578125 -0.875 C 0.609375 -0.851562 0.625 -0.832031 0.625 -0.8125 C 0.625 -0.789062 0.613281 -0.765625 0.59375 -0.734375 L 0.328125 -0.40625 C 0.304688 -0.375 0.28125 -0.351562 0.25 -0.34375 C 0.226562 -0.34375 0.203125 -0.351562 0.171875 -0.375 L -2.34375 -2.421875 C -2.375 -2.441406 -2.382812 -2.460938 -2.375 -2.484375 C -2.375 -2.515625 -2.363281 -2.546875 -2.34375 -2.578125 L -2.28125 -2.65625 C -2.238281 -2.707031 -2.195312 -2.757812 -2.15625 -2.8125 C -2.113281 -2.863281 -2.085938 -2.894531 -2.078125 -2.90625 L -1.5625 -3.546875 C -1.4375 -3.703125 -1.296875 -3.820312 -1.140625 -3.90625 C -0.984375 -4 -0.816406 -4.054688 -0.640625 -4.078125 C -0.472656 -4.109375 -0.300781 -4.09375 -0.125 -4.03125 C 0.0390625 -3.976562 0.195312 -3.894531 0.34375 -3.78125 C 0.53125 -3.632812 0.664062 -3.457031 0.75 -3.25 C 0.832031 -3.050781 0.863281 -2.847656 0.84375 -2.640625 Z M 0.046875 -2.171875 C 0.148438 -2.296875 0.210938 -2.425781 0.234375 -2.5625 C 0.253906 -2.695312 0.238281 -2.828125 0.1875 -2.953125 C 0.132812 -3.078125 0.0507812 -3.1875 -0.0625 -3.28125 C -0.144531 -3.351562 -0.234375 -3.398438 -0.328125 -3.421875 C -0.429688 -3.453125 -0.53125 -3.460938 -0.625 -3.453125 C -0.71875 -3.441406 -0.8125 -3.410156 -0.90625 -3.359375 C -1 -3.304688 -1.082031 -3.234375 -1.15625 -3.140625 L -1.578125 -2.625 L -0.375 -1.65625 Z M 0.046875 -2.171875 "/></g></g></g><g fill="#ffffff" fill-opacity="1"><g transform="translate(201.503254, 182.482762)"><g><path d="M -2.578125 -1.515625 L -2.890625 -1.6875 C -2.953125 -1.71875 -2.96875 -1.757812 -2.9375 -1.8125 L -1.84375 -3.90625 C -1.820312 -3.9375 -1.800781 -3.953125 -1.78125 -3.953125 C -1.757812 -3.953125 -1.734375 -3.945312 -1.703125 -3.9375 L -1.390625 -3.765625 C -1.328125 -3.734375 -1.3125 -3.691406 -1.34375 -3.640625 L -1.734375 -2.875 L 0.734375 -1.578125 C 0.785156 -1.546875 0.789062 -1.5 0.75 -1.4375 L 0.546875 -1.046875 C 0.523438 -0.992188 0.488281 -0.984375 0.4375 -1.015625 L -2.03125 -2.3125 L -2.4375 -1.546875 C -2.445312 -1.523438 -2.460938 -1.507812 -2.484375 -1.5 C -2.515625 -1.5 -2.546875 -1.503906 -2.578125 -1.515625 Z M -2.578125 -1.515625 "/></g></g></g><g fill="#ffffff" fill-opacity="1"><g transform="translate(202.993179, 179.586382)"><g><path d="M 0.5 -1.46875 C 0.46875 -1.34375 0.414062 -1.222656 0.34375 -1.109375 C 0.28125 -0.992188 0.207031 -0.890625 0.125 -0.796875 C 0.0507812 -0.703125 -0.03125 -0.617188 -0.125 -0.546875 C -0.21875 -0.472656 -0.316406 -0.421875 -0.421875 -0.390625 C -0.441406 -0.378906 -0.460938 -0.378906 -0.484375 -0.390625 C -0.515625 -0.398438 -0.539062 -0.421875 -0.5625 -0.453125 L -0.75 -0.8125 C -0.769531 -0.84375 -0.769531 -0.867188 -0.75 -0.890625 C -0.738281 -0.921875 -0.710938 -0.945312 -0.671875 -0.96875 C -0.597656 -1.007812 -0.515625 -1.0625 -0.421875 -1.125 C -0.335938 -1.195312 -0.265625 -1.273438 -0.203125 -1.359375 C -0.148438 -1.453125 -0.109375 -1.546875 -0.078125 -1.640625 C -0.0234375 -1.816406 -0.0195312 -1.960938 -0.0625 -2.078125 C -0.101562 -2.203125 -0.1875 -2.285156 -0.3125 -2.328125 C -0.394531 -2.347656 -0.46875 -2.335938 -0.53125 -2.296875 C -0.601562 -2.253906 -0.675781 -2.191406 -0.75 -2.109375 C -0.832031 -2.023438 -0.921875 -1.914062 -1.015625 -1.78125 C -1.109375 -1.644531 -1.203125 -1.523438 -1.296875 -1.421875 C -1.398438 -1.316406 -1.5 -1.234375 -1.59375 -1.171875 C -1.695312 -1.117188 -1.804688 -1.082031 -1.921875 -1.0625 C -2.035156 -1.050781 -2.164062 -1.066406 -2.3125 -1.109375 C -2.488281 -1.160156 -2.632812 -1.253906 -2.75 -1.390625 C -2.863281 -1.523438 -2.929688 -1.6875 -2.953125 -1.875 C -2.972656 -2.070312 -2.953125 -2.285156 -2.890625 -2.515625 C -2.847656 -2.640625 -2.789062 -2.753906 -2.71875 -2.859375 C -2.644531 -2.960938 -2.566406 -3.054688 -2.484375 -3.140625 C -2.398438 -3.222656 -2.3125 -3.289062 -2.21875 -3.34375 C -2.175781 -3.351562 -2.140625 -3.351562 -2.109375 -3.34375 C -2.078125 -3.332031 -2.0625 -3.316406 -2.0625 -3.296875 L -1.859375 -2.984375 C -1.828125 -2.941406 -1.816406 -2.90625 -1.828125 -2.875 C -1.847656 -2.851562 -1.875 -2.820312 -1.90625 -2.78125 C -2 -2.726562 -2.082031 -2.660156 -2.15625 -2.578125 C -2.226562 -2.492188 -2.28125 -2.40625 -2.3125 -2.3125 C -2.363281 -2.144531 -2.363281 -2.007812 -2.3125 -1.90625 C -2.269531 -1.800781 -2.203125 -1.734375 -2.109375 -1.703125 C -2.023438 -1.671875 -1.941406 -1.675781 -1.859375 -1.71875 C -1.785156 -1.769531 -1.707031 -1.84375 -1.625 -1.9375 C -1.550781 -2.03125 -1.46875 -2.132812 -1.375 -2.25 C -1.289062 -2.351562 -1.207031 -2.457031 -1.125 -2.5625 C -1.039062 -2.664062 -0.953125 -2.753906 -0.859375 -2.828125 C -0.765625 -2.898438 -0.648438 -2.953125 -0.515625 -2.984375 C -0.390625 -3.015625 -0.257812 -3.007812 -0.125 -2.96875 C 0.03125 -2.914062 0.160156 -2.835938 0.265625 -2.734375 C 0.367188 -2.640625 0.445312 -2.523438 0.5 -2.390625 C 0.550781 -2.265625 0.578125 -2.125 0.578125 -1.96875 C 0.585938 -1.8125 0.5625 -1.644531 0.5 -1.46875 Z M 0.5 -1.46875 "/></g></g></g></svg>